# xmcd
#
# Track frame offsets: 
#        150
#        20404
#        40759
#        60677
#        80784
#        100470
#        118789
#        140921
#        164882
#        185963
#        206845
#        231344
#        253453
#        275665
#        300776
#        315777
#        335071
#
# Disc length: 4798 seconds
#
# Revision: 0
# Processed by: cddbd v1.5.2PL0 Copyright (c) Steve Scherf et al.
# Submitted via: ExactAudioCopy v0.99pb3
#
DISCID=0d12bc11
DTITLE=Various Artist - Gospel Truth Magazine - Gospel Mix 07
DYEAR=2007
DGENRE=
TTITLE0=Shawn McLemore - Sunday Morning
TTITLE1=James Fortune and Fiya - The Blood
TTITLE2=H-Town - The Day I Die
TTITLE3=Nancey Jackson - Jesus
TTITLE4=Greg O'Quin 'N Joyful Noyze - I Told The Storm
TTITLE5=Roosevelt George - I Get Joy
TTITLE6=The Brown Boyz - Hallelujah Slide
TTITLE7=Jimmy Hicks and Voices Of Integrity - Born Blessed
TTITLE8=Greg Hoover and Charlotte Community Singers - Breakthrough
TTITLE9=Nu Beginning and Damon Little - Do Right
TTITLE10=Choir Boyz - God's Mercy
TTITLE11=Rev. Paul Jones - I Won't Complain
TTITLE12=James Fortune and Fiya - You Survived
TTITLE13=Greg O'Quin 'N Joyful Noyze - Unh-Unh!
TTITLE14=Eric Carrington - Worship U
TTITLE15=Spiritual Voices and Keith ''Wonderboy'' Johnson - I Need A Ble
TTITLE15=ssin'
TTITLE16=Evelyn Turrentine Agee - Brighter Days
EXTD=
EXTT0=
EXTT1=
EXTT2=
EXTT3=
EXTT4=
EXTT5=
EXTT6=
EXTT7=
EXTT8=
EXTT9=
EXTT10=
EXTT11=
EXTT12=
EXTT13=
EXTT14=
EXTT15=
EXTT16=
PLAYORDER=
